# xmcd
#
# Track frame offsets:
#	150
#	16645
#	30652
#	48848
#	64920
#	82342
#	98519
#	113600
#	129666
#	163253
#	180214
#	195267
#	212896
#	229947
#	245720
#	258981
#	274938
#	292564
#	309032
#
# Disc length: 4348 seconds
#
# Revision: 0
# Processed by: cddbd v1.5.2PL0 Copyright (c) Steve Scherf et al.
# Submitted via: EasyCDDAExtractor 10.0.3.1
#
DISCID=f610fa13
DTITLE=Various Artist - DANCE DYNAMITE VOL. 3
DYEAR=1900
DGENRE=
TTITLE0=LOU BEGA - Mambo No.5 (A Little Bit Of...)
TTITLE1=SCATMAN JOHN - Take Your Time - RADIO VERSION
TTITLE2=RED HARDIN - Livin'La Vida Loca
TTITLE3=MOJITO - Eo Ea! (Que Viva La Noche)
TTITLE4=DIRTY BOYS - Venga Boys Megamix
TTITLE5=FUNKY DIAMONDS - I Wanna Have
TTITLE6=SANDRA - Secret Land
TTITLE7=REAL McCOY - It's On You
TTITLE8=CHYP-NOTIC - In The Mix
TTITLE9=TONE LOC feat. ZZ BROS - Funky Cold Medina'Y2K
TTITLE10=LIPSTRIP - (Oops, I Got Big...) Boobs
TTITLE11=GRAAF - Give It Up
TTITLE12=MIXED EMOTIONS - You Want Love (Maria, Maria)'99
TTITLE13=FANCY - D.I.S.C.O. (Lust For Life)
TTITLE14=ACIDO - Di Da Di Dam (Phone Mix)
TTITLE15=LOS DEL RIO - Baila Baila
TTITLE16=ZOOM - Words
TTITLE17=N-DRE - Lesson In Love
TTITLE18=DROPZONE - Feel The Beat Of My Heart
EXTD=
EXTT0=
EXTT1=
EXTT2=
EXTT3=
EXTT4=
EXTT5=
EXTT6=
EXTT7=
EXTT8=
EXTT9=
EXTT10=
EXTT11=
EXTT12=
EXTT13=
EXTT14=
EXTT15=
EXTT16=
EXTT17=
EXTT18=
PLAYORDER=
